<svg width="25" height="19" viewBox="0 0 25 19" fill="none" xmlns="http://www.w3.org/2000/svg">
<path d="M19.7111 2.20833C19.6297 3.13542 19.426 4.04167 19.1 4.90625L20.7297 6.15625C21.2864 4.90625 21.6395 3.58333 21.7618 2.20833H19.7111ZM6.32101 14.7292C5.16669 14.9792 3.98521 15.1354 2.79015 15.1979V16.75C4.58274 16.6562 6.30743 16.3854 7.95064 15.9687L6.32101 14.7292ZM18.4074 0.125H23.1605C23.9074 0.125 24.5185 0.59375 24.5185 1.16667C24.5185 10.9479 14.184 18.875 1.43212 18.875C0.685208 18.875 0.0740967 18.4062 0.0740967 17.8333V14.1979C0.0740967 13.625 0.685208 13.1562 1.43212 13.1562C3.11607 13.1562 4.75928 12.9479 6.28027 12.5625C6.41607 12.5208 6.56546 12.5104 6.70126 12.5104C7.05434 12.5104 7.39385 12.6146 7.66546 12.8125L10.6531 15.1042C14.4963 13.5937 17.6469 11.1875 19.6025 8.23958L16.6148 5.94792C16.2346 5.65625 16.1259 5.25 16.2753 4.88542C16.7778 3.71875 17.0494 2.46875 17.0494 1.16667C17.0494 0.59375 17.6605 0.125 18.4074 0.125Z" fill="#DFC9A0"/>
</svg>
